<?xml version="1.0" encoding="UTF-8"?>
<svg width="20px" height="20px" viewBox="0 0 20 20" version="1.1" xmlns="http://www.w3.org/2000/svg" xmlns:xlink="http://www.w3.org/1999/xlink">
    <!-- Generator: sketchtool 51.1 (57501) - http://www.bohemiancoding.com/sketch -->
    <title>C630411E-691F-400C-B04B-2D6DD74A8F3B</title>
    <desc>Created with sketchtool.</desc>
    <defs>
        <path d="M10,0 C4.4771525,-3.38176876e-16 6.76353751e-16,4.4771525 0,10 C-6.76353751e-16,15.5228475 4.4771525,20 10,20 C15.5228475,20 20,15.5228475 20,10 C19.9947497,4.4793287 15.5206713,0.00525028534 10,0 Z M10,19.047619 C5.00313798,19.047619 0.952380952,14.996862 0.952380952,10 C0.952380952,5.00313798 5.00313798,0.952380952 10,0.952380952 C14.996862,0.952380952 19.047619,5.00313798 19.047619,10 C19.0423698,14.9946861 14.9946861,19.0423698 10,19.047619 Z M10.3904762,11.0380952 L6.35238095,7 L5,8.34285714 L9.04761905,12.3809524 L10.3904762,13.7333333 L11.7333333,12.3809524 L15.7809524,8.34285714 L14.4285714,7 L10.3904762,11.0380952 Z" id="path-1"></path>
    </defs>
    <g id="Symbols" stroke="none" stroke-width="1" fill="none" fill-rule="evenodd">
        <g id="ico/15">
            <mask id="mask-2" fill="white">
                <use xlink:href="#path-1"></use>
            </mask>
            <use id="DatovyÌ-zdroj-67" fill="#333333" fill-rule="nonzero" xlink:href="#path-1"></use>
        </g>
    </g>
</svg>